<svg xmlns="http://www.w3.org/2000/svg" xmlns:xlink="http://www.w3.org/1999/xlink" width="500" zoomAndPan="magnify" viewBox="0 0 375 374.999991" height="500" preserveAspectRatio="xMidYMid meet" version="1.0"><defs><g/><clipPath id="id1"><path d="M 70.59375 222.445312 L 303.09375 222.445312 L 303.09375 226.195312 L 70.59375 226.195312 Z M 70.59375 222.445312 " clip-rule="nonzero"/></clipPath></defs><rect x="-37.5" width="450" fill="rgb(100%, 100%, 100%)" y="-37.499999" height="449.999989" fill-opacity="1"/><rect x="-37.5" width="450" fill="rgb(5.488586%, 29.019165%, 43.919373%)" y="-37.499999" height="449.999989" fill-opacity="1"/><rect x="-37.5" width="450" fill="rgb(100%, 100%, 100%)" y="-37.499999" height="449.999989" fill-opacity="1"/><rect x="-37.5" width="450" fill="rgb(5.488586%, 29.019165%, 43.919373%)" y="-37.499999" height="449.999989" fill-opacity="1"/><g fill="rgb(88.238525%, 88.238525%, 88.238525%)" fill-opacity="1"><g transform="translate(66.656676, 206.434109)"><g><path d="M 46.46875 0 C 55.929688 -0.253906 63.363281 -7.773438 63.363281 -16.898438 C 63.363281 -21.964844 61.421875 -26.191406 57.621094 -29.570312 C 61.421875 -32.949219 63.363281 -37.175781 63.363281 -42.242188 C 63.363281 -51.621094 55.339844 -59.140625 46.46875 -59.140625 L 4.222656 -59.140625 L 4.222656 0 Z M 46.46875 -25.347656 C 51.113281 -25.347656 54.917969 -21.542969 54.917969 -16.898438 C 54.917969 -12.25 51.113281 -8.449219 46.46875 -8.449219 L 12.671875 -8.449219 L 12.671875 -25.347656 Z M 12.671875 -50.691406 L 46.46875 -50.691406 C 51.113281 -50.691406 54.917969 -46.890625 54.917969 -42.242188 C 54.917969 -37.597656 51.113281 -33.792969 46.46875 -33.792969 L 12.671875 -33.792969 Z M 12.671875 -50.691406 "/></g></g></g><g fill="rgb(100%, 61.959839%, 36.859131%)" fill-opacity="1"><g transform="translate(108.059168, 242.51429)"><g><path d="M 3.671875 0.109375 C 3.097656 0.109375 2.585938 -0.00390625 2.140625 -0.234375 C 1.703125 -0.460938 1.359375 -0.785156 1.109375 -1.203125 C 0.867188 -1.617188 0.75 -2.097656 0.75 -2.640625 L 0.75 -5.734375 C 0.75 -6.273438 0.867188 -6.75 1.109375 -7.15625 C 1.359375 -7.570312 1.703125 -7.894531 2.140625 -8.125 C 2.585938 -8.351562 3.097656 -8.46875 3.671875 -8.46875 C 4.242188 -8.46875 4.75 -8.359375 5.1875 -8.140625 C 5.625 -7.921875 5.960938 -7.609375 6.203125 -7.203125 C 6.453125 -6.804688 6.578125 -6.347656 6.578125 -5.828125 C 6.578125 -5.742188 6.515625 -5.691406 6.390625 -5.671875 L 5.609375 -5.625 L 5.5625 -5.625 C 5.519531 -5.625 5.484375 -5.628906 5.453125 -5.640625 C 5.429688 -5.660156 5.421875 -5.679688 5.421875 -5.703125 L 5.421875 -5.765625 C 5.421875 -6.273438 5.257812 -6.6875 4.9375 -7 C 4.625 -7.3125 4.203125 -7.46875 3.671875 -7.46875 C 3.140625 -7.46875 2.710938 -7.3125 2.390625 -7 C 2.066406 -6.6875 1.90625 -6.273438 1.90625 -5.765625 L 1.90625 -2.59375 C 1.90625 -2.082031 2.066406 -1.671875 2.390625 -1.359375 C 2.710938 -1.046875 3.140625 -0.890625 3.671875 -0.890625 C 4.203125 -0.890625 4.625 -1.046875 4.9375 -1.359375 C 5.257812 -1.671875 5.421875 -2.082031 5.421875 -2.59375 C 5.421875 -2.644531 5.4375 -2.679688 5.46875 -2.703125 C 5.5 -2.722656 5.546875 -2.726562 5.609375 -2.71875 L 6.390625 -2.671875 C 6.515625 -2.660156 6.578125 -2.644531 6.578125 -2.625 L 6.578125 -2.5625 C 6.578125 -2.03125 6.453125 -1.5625 6.203125 -1.15625 C 5.960938 -0.757812 5.625 -0.445312 5.1875 -0.21875 C 4.75 0 4.242188 0.109375 3.671875 0.109375 Z M 3.671875 0.109375 "/></g></g></g><g fill="rgb(100%, 61.959839%, 36.859131%)" fill-opacity="1"><g transform="translate(116.786228, 242.51429)"><g><path d="M 3.703125 0.109375 C 3.117188 0.109375 2.601562 -0.0078125 2.15625 -0.25 C 1.71875 -0.488281 1.375 -0.820312 1.125 -1.25 C 0.875 -1.6875 0.75 -2.191406 0.75 -2.765625 L 0.75 -5.609375 C 0.75 -6.171875 0.875 -6.664062 1.125 -7.09375 C 1.375 -7.53125 1.71875 -7.867188 2.15625 -8.109375 C 2.601562 -8.347656 3.117188 -8.46875 3.703125 -8.46875 C 4.296875 -8.46875 4.8125 -8.347656 5.25 -8.109375 C 5.695312 -7.867188 6.046875 -7.53125 6.296875 -7.09375 C 6.546875 -6.664062 6.671875 -6.171875 6.671875 -5.609375 L 6.671875 -2.765625 C 6.671875 -2.191406 6.546875 -1.6875 6.296875 -1.25 C 6.046875 -0.820312 5.695312 -0.488281 5.25 -0.25 C 4.8125 -0.0078125 4.296875 0.109375 3.703125 0.109375 Z M 3.703125 -0.890625 C 4.242188 -0.890625 4.679688 -1.054688 5.015625 -1.390625 C 5.347656 -1.722656 5.515625 -2.164062 5.515625 -2.71875 L 5.515625 -5.625 C 5.515625 -6.175781 5.347656 -6.617188 5.015625 -6.953125 C 4.679688 -7.296875 4.242188 -7.46875 3.703125 -7.46875 C 3.160156 -7.46875 2.722656 -7.296875 2.390625 -6.953125 C 2.066406 -6.617188 1.90625 -6.175781 1.90625 -5.625 L 1.90625 -2.71875 C 1.90625 -2.164062 2.066406 -1.722656 2.390625 -1.390625 C 2.722656 -1.054688 3.160156 -0.890625 3.703125 -0.890625 Z M 3.703125 -0.890625 "/></g></g></g><g fill="rgb(100%, 61.959839%, 36.859131%)" fill-opacity="1"><g transform="translate(125.692597, 242.51429)"><g><path d="M 1.15625 0 C 1.101562 0 1.0625 -0.015625 1.03125 -0.046875 C 1 -0.078125 0.984375 -0.117188 0.984375 -0.171875 L 0.984375 -8.1875 C 0.984375 -8.238281 1 -8.28125 1.03125 -8.3125 C 1.0625 -8.34375 1.101562 -8.359375 1.15625 -8.359375 L 1.921875 -8.359375 C 2.015625 -8.359375 2.085938 -8.320312 2.140625 -8.25 L 5.796875 -2.328125 C 5.816406 -2.304688 5.832031 -2.296875 5.84375 -2.296875 C 5.863281 -2.304688 5.875 -2.328125 5.875 -2.359375 L 5.875 -8.1875 C 5.875 -8.238281 5.890625 -8.28125 5.921875 -8.3125 C 5.953125 -8.34375 5.992188 -8.359375 6.046875 -8.359375 L 6.84375 -8.359375 C 6.894531 -8.359375 6.9375 -8.34375 6.96875 -8.3125 C 7 -8.28125 7.015625 -8.238281 7.015625 -8.1875 L 7.015625 -0.171875 C 7.015625 -0.117188 7 -0.078125 6.96875 -0.046875 C 6.9375 -0.015625 6.894531 0 6.84375 0 L 6.0625 0 C 5.96875 0 5.894531 -0.0390625 5.84375 -0.125 L 2.1875 -6.078125 C 2.164062 -6.097656 2.144531 -6.101562 2.125 -6.09375 C 2.113281 -6.09375 2.109375 -6.078125 2.109375 -6.046875 L 2.125 -0.171875 C 2.125 -0.117188 2.109375 -0.078125 2.078125 -0.046875 C 2.046875 -0.015625 2.003906 0 1.953125 0 Z M 1.15625 0 "/></g></g></g><g fill="rgb(100%, 61.959839%, 36.859131%)" fill-opacity="1"><g transform="translate(135.148862, 242.51429)"><g><path d="M 3.5625 0.09375 C 2.96875 0.09375 2.445312 0 2 -0.1875 C 1.550781 -0.382812 1.203125 -0.65625 0.953125 -1 C 0.710938 -1.351562 0.59375 -1.765625 0.59375 -2.234375 L 0.59375 -2.515625 C 0.59375 -2.578125 0.609375 -2.625 0.640625 -2.65625 C 0.671875 -2.6875 0.71875 -2.703125 0.78125 -2.703125 L 1.546875 -2.703125 C 1.597656 -2.703125 1.640625 -2.6875 1.671875 -2.65625 C 1.703125 -2.625 1.71875 -2.578125 1.71875 -2.515625 L 1.71875 -2.296875 C 1.71875 -1.890625 1.890625 -1.550781 2.234375 -1.28125 C 2.585938 -1.019531 3.054688 -0.890625 3.640625 -0.890625 C 4.191406 -0.890625 4.609375 -1.003906 4.890625 -1.234375 C 5.171875 -1.472656 5.3125 -1.78125 5.3125 -2.15625 C 5.3125 -2.394531 5.238281 -2.601562 5.09375 -2.78125 C 4.945312 -2.957031 4.734375 -3.117188 4.453125 -3.265625 C 4.179688 -3.410156 3.785156 -3.585938 3.265625 -3.796875 C 2.679688 -4.023438 2.21875 -4.226562 1.875 -4.40625 C 1.539062 -4.59375 1.257812 -4.832031 1.03125 -5.125 C 0.8125 -5.425781 0.703125 -5.804688 0.703125 -6.265625 C 0.703125 -6.953125 0.945312 -7.488281 1.4375 -7.875 C 1.925781 -8.269531 2.59375 -8.46875 3.4375 -8.46875 C 4.019531 -8.46875 4.535156 -8.363281 4.984375 -8.15625 C 5.429688 -7.957031 5.773438 -7.679688 6.015625 -7.328125 C 6.265625 -6.972656 6.390625 -6.554688 6.390625 -6.078125 L 6.390625 -5.90625 C 6.390625 -5.851562 6.367188 -5.804688 6.328125 -5.765625 C 6.296875 -5.734375 6.253906 -5.71875 6.203125 -5.71875 L 5.421875 -5.71875 C 5.367188 -5.71875 5.328125 -5.734375 5.296875 -5.765625 C 5.265625 -5.796875 5.25 -5.832031 5.25 -5.875 L 5.25 -6.03125 C 5.25 -6.4375 5.082031 -6.773438 4.75 -7.046875 C 4.414062 -7.328125 3.957031 -7.46875 3.375 -7.46875 C 2.882812 -7.46875 2.503906 -7.363281 2.234375 -7.15625 C 1.960938 -6.957031 1.828125 -6.664062 1.828125 -6.28125 C 1.828125 -6.019531 1.894531 -5.804688 2.03125 -5.640625 C 2.164062 -5.472656 2.363281 -5.320312 2.625 -5.1875 C 2.894531 -5.0625 3.304688 -4.894531 3.859375 -4.6875 C 4.421875 -4.457031 4.878906 -4.25 5.234375 -4.0625 C 5.585938 -3.882812 5.878906 -3.640625 6.109375 -3.328125 C 6.335938 -3.023438 6.453125 -2.644531 6.453125 -2.1875 C 6.453125 -1.726562 6.335938 -1.328125 6.109375 -0.984375 C 5.878906 -0.648438 5.546875 -0.382812 5.109375 -0.1875 C 4.671875 0 4.15625 0.09375 3.5625 0.09375 Z M 3.5625 0.09375 "/></g></g></g><g fill="rgb(100%, 61.959839%, 36.859131%)" fill-opacity="1"><g transform="translate(143.648787, 242.51429)"><g><path d="M 6.234375 -8.359375 C 6.296875 -8.359375 6.34375 -8.34375 6.375 -8.3125 C 6.40625 -8.28125 6.421875 -8.238281 6.421875 -8.1875 L 6.421875 -7.546875 C 6.421875 -7.484375 6.40625 -7.4375 6.375 -7.40625 C 6.34375 -7.375 6.296875 -7.359375 6.234375 -7.359375 L 4.015625 -7.359375 C 3.972656 -7.359375 3.953125 -7.335938 3.953125 -7.296875 L 3.953125 -0.171875 C 3.953125 -0.117188 3.9375 -0.078125 3.90625 -0.046875 C 3.875 -0.015625 3.832031 0 3.78125 0 L 2.984375 0 C 2.929688 0 2.890625 -0.015625 2.859375 -0.046875 C 2.828125 -0.078125 2.8125 -0.117188 2.8125 -0.171875 L 2.8125 -7.296875 C 2.8125 -7.335938 2.789062 -7.359375 2.75 -7.359375 L 0.640625 -7.359375 C 0.578125 -7.359375 0.53125 -7.375 0.5 -7.40625 C 0.46875 -7.4375 0.453125 -7.484375 0.453125 -7.546875 L 0.453125 -8.1875 C 0.453125 -8.238281 0.46875 -8.28125 0.5 -8.3125 C 0.53125 -8.34375 0.578125 -8.359375 0.640625 -8.359375 Z M 6.234375 -8.359375 "/></g></g></g><g fill="rgb(100%, 61.959839%, 36.859131%)" fill-opacity="1"><g transform="translate(151.981349, 242.51429)"><g><path d="M 5.796875 0 C 5.703125 0 5.632812 -0.0390625 5.59375 -0.125 L 3.9375 -3.671875 C 3.925781 -3.703125 3.90625 -3.71875 3.875 -3.71875 L 2.1875 -3.71875 C 2.144531 -3.71875 2.125 -3.695312 2.125 -3.65625 L 2.125 -0.171875 C 2.125 -0.117188 2.109375 -0.078125 2.078125 -0.046875 C 2.046875 -0.015625 2.003906 0 1.953125 0 L 1.15625 0 C 1.101562 0 1.0625 -0.015625 1.03125 -0.046875 C 1 -0.078125 0.984375 -0.117188 0.984375 -0.171875 L 0.984375 -8.203125 C 0.984375 -8.253906 1 -8.296875 1.03125 -8.328125 C 1.0625 -8.359375 1.101562 -8.375 1.15625 -8.375 L 4.3125 -8.375 C 4.789062 -8.375 5.210938 -8.273438 5.578125 -8.078125 C 5.941406 -7.878906 6.222656 -7.597656 6.421875 -7.234375 C 6.617188 -6.878906 6.71875 -6.46875 6.71875 -6 C 6.71875 -5.445312 6.566406 -4.976562 6.265625 -4.59375 C 5.972656 -4.207031 5.578125 -3.945312 5.078125 -3.8125 C 5.046875 -3.800781 5.035156 -3.773438 5.046875 -3.734375 L 6.734375 -0.21875 L 6.765625 -0.125 C 6.765625 -0.0390625 6.710938 0 6.609375 0 Z M 2.1875 -7.390625 C 2.144531 -7.390625 2.125 -7.367188 2.125 -7.328125 L 2.125 -4.671875 C 2.125 -4.628906 2.144531 -4.609375 2.1875 -4.609375 L 4.171875 -4.609375 C 4.585938 -4.609375 4.921875 -4.734375 5.171875 -4.984375 C 5.429688 -5.242188 5.5625 -5.578125 5.5625 -5.984375 C 5.5625 -6.410156 5.4375 -6.75 5.1875 -7 C 4.9375 -7.257812 4.597656 -7.390625 4.171875 -7.390625 Z M 2.1875 -7.390625 "/></g></g></g><g fill="rgb(100%, 61.959839%, 36.859131%)" fill-opacity="1"><g transform="translate(160.780134, 242.51429)"><g><path d="M 3.84375 0.09375 C 3.257812 0.09375 2.742188 -0.015625 2.296875 -0.234375 C 1.859375 -0.460938 1.515625 -0.785156 1.265625 -1.203125 C 1.015625 -1.628906 0.890625 -2.113281 0.890625 -2.65625 L 0.890625 -8.1875 C 0.890625 -8.238281 0.90625 -8.28125 0.9375 -8.3125 C 0.96875 -8.34375 1.015625 -8.359375 1.078125 -8.359375 L 1.859375 -8.359375 C 1.921875 -8.359375 1.96875 -8.34375 2 -8.3125 C 2.03125 -8.28125 2.046875 -8.238281 2.046875 -8.1875 L 2.046875 -2.625 C 2.046875 -2.113281 2.207031 -1.695312 2.53125 -1.375 C 2.863281 -1.050781 3.300781 -0.890625 3.84375 -0.890625 C 4.375 -0.890625 4.800781 -1.050781 5.125 -1.375 C 5.457031 -1.695312 5.625 -2.113281 5.625 -2.625 L 5.625 -8.1875 C 5.625 -8.238281 5.640625 -8.28125 5.671875 -8.3125 C 5.703125 -8.34375 5.742188 -8.359375 5.796875 -8.359375 L 6.59375 -8.359375 C 6.644531 -8.359375 6.6875 -8.34375 6.71875 -8.3125 C 6.75 -8.28125 6.765625 -8.238281 6.765625 -8.1875 L 6.765625 -2.65625 C 6.765625 -2.113281 6.640625 -1.628906 6.390625 -1.203125 C 6.148438 -0.785156 5.804688 -0.460938 5.359375 -0.234375 C 4.921875 -0.015625 4.414062 0.09375 3.84375 0.09375 Z M 3.84375 0.09375 "/></g></g></g><g fill="rgb(100%, 61.959839%, 36.859131%)" fill-opacity="1"><g transform="translate(169.913635, 242.51429)"><g><path d="M 1.15625 0 C 1.101562 0 1.0625 -0.015625 1.03125 -0.046875 C 1 -0.078125 0.984375 -0.117188 0.984375 -0.171875 L 0.984375 -8.1875 C 0.984375 -8.238281 1 -8.28125 1.03125 -8.3125 C 1.0625 -8.34375 1.101562 -8.359375 1.15625 -8.359375 L 1.953125 -8.359375 C 2.003906 -8.359375 2.046875 -8.34375 2.078125 -8.3125 C 2.109375 -8.28125 2.125 -8.238281 2.125 -8.1875 L 2.125 -0.171875 C 2.125 -0.117188 2.109375 -0.078125 2.078125 -0.046875 C 2.046875 -0.015625 2.003906 0 1.953125 0 Z M 1.15625 0 "/></g></g></g><g fill="rgb(100%, 61.959839%, 36.859131%)" fill-opacity="1"><g transform="translate(174.492566, 242.51429)"><g><path d="M 5.796875 0 C 5.703125 0 5.632812 -0.0390625 5.59375 -0.125 L 3.9375 -3.671875 C 3.925781 -3.703125 3.90625 -3.71875 3.875 -3.71875 L 2.1875 -3.71875 C 2.144531 -3.71875 2.125 -3.695312 2.125 -3.65625 L 2.125 -0.171875 C 2.125 -0.117188 2.109375 -0.078125 2.078125 -0.046875 C 2.046875 -0.015625 2.003906 0 1.953125 0 L 1.15625 0 C 1.101562 0 1.0625 -0.015625 1.03125 -0.046875 C 1 -0.078125 0.984375 -0.117188 0.984375 -0.171875 L 0.984375 -8.203125 C 0.984375 -8.253906 1 -8.296875 1.03125 -8.328125 C 1.0625 -8.359375 1.101562 -8.375 1.15625 -8.375 L 4.3125 -8.375 C 4.789062 -8.375 5.210938 -8.273438 5.578125 -8.078125 C 5.941406 -7.878906 6.222656 -7.597656 6.421875 -7.234375 C 6.617188 -6.878906 6.71875 -6.46875 6.71875 -6 C 6.71875 -5.445312 6.566406 -4.976562 6.265625 -4.59375 C 5.972656 -4.207031 5.578125 -3.945312 5.078125 -3.8125 C 5.046875 -3.800781 5.035156 -3.773438 5.046875 -3.734375 L 6.734375 -0.21875 L 6.765625 -0.125 C 6.765625 -0.0390625 6.710938 0 6.609375 0 Z M 2.1875 -7.390625 C 2.144531 -7.390625 2.125 -7.367188 2.125 -7.328125 L 2.125 -4.671875 C 2.125 -4.628906 2.144531 -4.609375 2.1875 -4.609375 L 4.171875 -4.609375 C 4.585938 -4.609375 4.921875 -4.734375 5.171875 -4.984375 C 5.429688 -5.242188 5.5625 -5.578125 5.5625 -5.984375 C 5.5625 -6.410156 5.4375 -6.75 5.1875 -7 C 4.9375 -7.257812 4.597656 -7.390625 4.171875 -7.390625 Z M 2.1875 -7.390625 "/></g></g></g><g fill="rgb(100%, 61.959839%, 36.859131%)" fill-opacity="1"><g transform="translate(183.291351, 242.51429)"><g><path d="M 6.53125 -7.546875 C 6.53125 -7.492188 6.515625 -7.453125 6.484375 -7.421875 C 6.453125 -7.390625 6.410156 -7.375 6.359375 -7.375 L 2.1875 -7.375 C 2.144531 -7.375 2.125 -7.351562 2.125 -7.3125 L 2.125 -4.765625 C 2.125 -4.722656 2.144531 -4.703125 2.1875 -4.703125 L 5.03125 -4.703125 C 5.082031 -4.703125 5.125 -4.6875 5.15625 -4.65625 C 5.195312 -4.625 5.21875 -4.582031 5.21875 -4.53125 L 5.21875 -3.890625 C 5.21875 -3.835938 5.195312 -3.796875 5.15625 -3.765625 C 5.125 -3.734375 5.082031 -3.71875 5.03125 -3.71875 L 2.1875 -3.71875 C 2.144531 -3.71875 2.125 -3.695312 2.125 -3.65625 L 2.125 -1.046875 C 2.125 -1.003906 2.144531 -0.984375 2.1875 -0.984375 L 6.359375 -0.984375 C 6.410156 -0.984375 6.453125 -0.96875 6.484375 -0.9375 C 6.515625 -0.90625 6.53125 -0.863281 6.53125 -0.8125 L 6.53125 -0.171875 C 6.53125 -0.117188 6.515625 -0.078125 6.484375 -0.046875 C 6.453125 -0.015625 6.410156 0 6.359375 0 L 1.15625 0 C 1.101562 0 1.0625 -0.015625 1.03125 -0.046875 C 1 -0.078125 0.984375 -0.117188 0.984375 -0.171875 L 0.984375 -8.1875 C 0.984375 -8.238281 1 -8.28125 1.03125 -8.3125 C 1.0625 -8.34375 1.101562 -8.359375 1.15625 -8.359375 L 6.359375 -8.359375 C 6.410156 -8.359375 6.453125 -8.34375 6.484375 -8.3125 C 6.515625 -8.28125 6.53125 -8.238281 6.53125 -8.1875 Z M 6.53125 -7.546875 "/></g></g></g><g fill="rgb(100%, 61.959839%, 36.859131%)" fill-opacity="1"><g transform="translate(191.910816, 242.51429)"><g/></g></g><g fill="rgb(100%, 61.959839%, 36.859131%)" fill-opacity="1"><g transform="translate(195.772501, 242.51429)"><g><path d="M 6.53125 -7.546875 C 6.53125 -7.492188 6.515625 -7.453125 6.484375 -7.421875 C 6.453125 -7.390625 6.410156 -7.375 6.359375 -7.375 L 2.1875 -7.375 C 2.144531 -7.375 2.125 -7.351562 2.125 -7.3125 L 2.125 -4.765625 C 2.125 -4.722656 2.144531 -4.703125 2.1875 -4.703125 L 5.03125 -4.703125 C 5.082031 -4.703125 5.125 -4.6875 5.15625 -4.65625 C 5.195312 -4.625 5.21875 -4.582031 5.21875 -4.53125 L 5.21875 -3.890625 C 5.21875 -3.835938 5.195312 -3.796875 5.15625 -3.765625 C 5.125 -3.734375 5.082031 -3.71875 5.03125 -3.71875 L 2.1875 -3.71875 C 2.144531 -3.71875 2.125 -3.695312 2.125 -3.65625 L 2.125 -1.046875 C 2.125 -1.003906 2.144531 -0.984375 2.1875 -0.984375 L 6.359375 -0.984375 C 6.410156 -0.984375 6.453125 -0.96875 6.484375 -0.9375 C 6.515625 -0.90625 6.53125 -0.863281 6.53125 -0.8125 L 6.53125 -0.171875 C 6.53125 -0.117188 6.515625 -0.078125 6.484375 -0.046875 C 6.453125 -0.015625 6.410156 0 6.359375 0 L 1.15625 0 C 1.101562 0 1.0625 -0.015625 1.03125 -0.046875 C 1 -0.078125 0.984375 -0.117188 0.984375 -0.171875 L 0.984375 -8.1875 C 0.984375 -8.238281 1 -8.28125 1.03125 -8.3125 C 1.0625 -8.34375 1.101562 -8.359375 1.15625 -8.359375 L 6.359375 -8.359375 C 6.410156 -8.359375 6.453125 -8.34375 6.484375 -8.3125 C 6.515625 -8.28125 6.53125 -8.238281 6.53125 -8.1875 Z M 6.53125 -7.546875 "/></g></g></g><g fill="rgb(100%, 61.959839%, 36.859131%)" fill-opacity="1"><g transform="translate(204.391965, 242.51429)"><g><path d="M 1.15625 0 C 1.101562 0 1.0625 -0.015625 1.03125 -0.046875 C 1 -0.078125 0.984375 -0.117188 0.984375 -0.171875 L 0.984375 -8.1875 C 0.984375 -8.238281 1 -8.28125 1.03125 -8.3125 C 1.0625 -8.34375 1.101562 -8.359375 1.15625 -8.359375 L 1.921875 -8.359375 C 2.015625 -8.359375 2.085938 -8.320312 2.140625 -8.25 L 5.796875 -2.328125 C 5.816406 -2.304688 5.832031 -2.296875 5.84375 -2.296875 C 5.863281 -2.304688 5.875 -2.328125 5.875 -2.359375 L 5.875 -8.1875 C 5.875 -8.238281 5.890625 -8.28125 5.921875 -8.3125 C 5.953125 -8.34375 5.992188 -8.359375 6.046875 -8.359375 L 6.84375 -8.359375 C 6.894531 -8.359375 6.9375 -8.34375 6.96875 -8.3125 C 7 -8.28125 7.015625 -8.238281 7.015625 -8.1875 L 7.015625 -0.171875 C 7.015625 -0.117188 7 -0.078125 6.96875 -0.046875 C 6.9375 -0.015625 6.894531 0 6.84375 0 L 6.0625 0 C 5.96875 0 5.894531 -0.0390625 5.84375 -0.125 L 2.1875 -6.078125 C 2.164062 -6.097656 2.144531 -6.101562 2.125 -6.09375 C 2.113281 -6.09375 2.109375 -6.078125 2.109375 -6.046875 L 2.125 -0.171875 C 2.125 -0.117188 2.109375 -0.078125 2.078125 -0.046875 C 2.046875 -0.015625 2.003906 0 1.953125 0 Z M 1.15625 0 "/></g></g></g><g fill="rgb(100%, 61.959839%, 36.859131%)" fill-opacity="1"><g transform="translate(213.848227, 242.51429)"><g><path d="M 3.5625 0.09375 C 2.96875 0.09375 2.445312 0 2 -0.1875 C 1.550781 -0.382812 1.203125 -0.65625 0.953125 -1 C 0.710938 -1.351562 0.59375 -1.765625 0.59375 -2.234375 L 0.59375 -2.515625 C 0.59375 -2.578125 0.609375 -2.625 0.640625 -2.65625 C 0.671875 -2.6875 0.71875 -2.703125 0.78125 -2.703125 L 1.546875 -2.703125 C 1.597656 -2.703125 1.640625 -2.6875 1.671875 -2.65625 C 1.703125 -2.625 1.71875 -2.578125 1.71875 -2.515625 L 1.71875 -2.296875 C 1.71875 -1.890625 1.890625 -1.550781 2.234375 -1.28125 C 2.585938 -1.019531 3.054688 -0.890625 3.640625 -0.890625 C 4.191406 -0.890625 4.609375 -1.003906 4.890625 -1.234375 C 5.171875 -1.472656 5.3125 -1.78125 5.3125 -2.15625 C 5.3125 -2.394531 5.238281 -2.601562 5.09375 -2.78125 C 4.945312 -2.957031 4.734375 -3.117188 4.453125 -3.265625 C 4.179688 -3.410156 3.785156 -3.585938 3.265625 -3.796875 C 2.679688 -4.023438 2.21875 -4.226562 1.875 -4.40625 C 1.539062 -4.59375 1.257812 -4.832031 1.03125 -5.125 C 0.8125 -5.425781 0.703125 -5.804688 0.703125 -6.265625 C 0.703125 -6.953125 0.945312 -7.488281 1.4375 -7.875 C 1.925781 -8.269531 2.59375 -8.46875 3.4375 -8.46875 C 4.019531 -8.46875 4.535156 -8.363281 4.984375 -8.15625 C 5.429688 -7.957031 5.773438 -7.679688 6.015625 -7.328125 C 6.265625 -6.972656 6.390625 -6.554688 6.390625 -6.078125 L 6.390625 -5.90625 C 6.390625 -5.851562 6.367188 -5.804688 6.328125 -5.765625 C 6.296875 -5.734375 6.253906 -5.71875 6.203125 -5.71875 L 5.421875 -5.71875 C 5.367188 -5.71875 5.328125 -5.734375 5.296875 -5.765625 C 5.265625 -5.796875 5.25 -5.832031 5.25 -5.875 L 5.25 -6.03125 C 5.25 -6.4375 5.082031 -6.773438 4.75 -7.046875 C 4.414062 -7.328125 3.957031 -7.46875 3.375 -7.46875 C 2.882812 -7.46875 2.503906 -7.363281 2.234375 -7.15625 C 1.960938 -6.957031 1.828125 -6.664062 1.828125 -6.28125 C 1.828125 -6.019531 1.894531 -5.804688 2.03125 -5.640625 C 2.164062 -5.472656 2.363281 -5.320312 2.625 -5.1875 C 2.894531 -5.0625 3.304688 -4.894531 3.859375 -4.6875 C 4.421875 -4.457031 4.878906 -4.25 5.234375 -4.0625 C 5.585938 -3.882812 5.878906 -3.640625 6.109375 -3.328125 C 6.335938 -3.023438 6.453125 -2.644531 6.453125 -2.1875 C 6.453125 -1.726562 6.335938 -1.328125 6.109375 -0.984375 C 5.878906 -0.648438 5.546875 -0.382812 5.109375 -0.1875 C 4.671875 0 4.15625 0.09375 3.5625 0.09375 Z M 3.5625 0.09375 "/></g></g></g><g fill="rgb(100%, 61.959839%, 36.859131%)" fill-opacity="1"><g transform="translate(222.348158, 242.51429)"><g><path d="M 6.53125 -7.546875 C 6.53125 -7.492188 6.515625 -7.453125 6.484375 -7.421875 C 6.453125 -7.390625 6.410156 -7.375 6.359375 -7.375 L 2.1875 -7.375 C 2.144531 -7.375 2.125 -7.351562 2.125 -7.3125 L 2.125 -4.765625 C 2.125 -4.722656 2.144531 -4.703125 2.1875 -4.703125 L 5.03125 -4.703125 C 5.082031 -4.703125 5.125 -4.6875 5.15625 -4.65625 C 5.195312 -4.625 5.21875 -4.582031 5.21875 -4.53125 L 5.21875 -3.890625 C 5.21875 -3.835938 5.195312 -3.796875 5.15625 -3.765625 C 5.125 -3.734375 5.082031 -3.71875 5.03125 -3.71875 L 2.1875 -3.71875 C 2.144531 -3.71875 2.125 -3.695312 2.125 -3.65625 L 2.125 -1.046875 C 2.125 -1.003906 2.144531 -0.984375 2.1875 -0.984375 L 6.359375 -0.984375 C 6.410156 -0.984375 6.453125 -0.96875 6.484375 -0.9375 C 6.515625 -0.90625 6.53125 -0.863281 6.53125 -0.8125 L 6.53125 -0.171875 C 6.53125 -0.117188 6.515625 -0.078125 6.484375 -0.046875 C 6.453125 -0.015625 6.410156 0 6.359375 0 L 1.15625 0 C 1.101562 0 1.0625 -0.015625 1.03125 -0.046875 C 1 -0.078125 0.984375 -0.117188 0.984375 -0.171875 L 0.984375 -8.1875 C 0.984375 -8.238281 1 -8.28125 1.03125 -8.3125 C 1.0625 -8.34375 1.101562 -8.359375 1.15625 -8.359375 L 6.359375 -8.359375 C 6.410156 -8.359375 6.453125 -8.34375 6.484375 -8.3125 C 6.515625 -8.28125 6.53125 -8.238281 6.53125 -8.1875 Z M 6.53125 -7.546875 "/></g></g></g><g fill="rgb(100%, 61.959839%, 36.859131%)" fill-opacity="1"><g transform="translate(230.967629, 242.51429)"><g><path d="M 1.171875 0 C 1.117188 0 1.070312 -0.015625 1.03125 -0.046875 C 1 -0.078125 0.984375 -0.117188 0.984375 -0.171875 L 0.984375 -8.1875 C 0.984375 -8.238281 1 -8.28125 1.03125 -8.3125 C 1.070312 -8.34375 1.117188 -8.359375 1.171875 -8.359375 L 1.96875 -8.359375 C 2.0625 -8.359375 2.132812 -8.320312 2.1875 -8.25 L 4.203125 -5.046875 C 4.222656 -4.992188 4.242188 -4.992188 4.265625 -5.046875 L 6.28125 -8.25 C 6.332031 -8.320312 6.40625 -8.359375 6.5 -8.359375 L 7.296875 -8.359375 C 7.359375 -8.359375 7.40625 -8.34375 7.4375 -8.3125 C 7.46875 -8.28125 7.484375 -8.238281 7.484375 -8.1875 L 7.484375 -0.171875 C 7.484375 -0.117188 7.46875 -0.078125 7.4375 -0.046875 C 7.40625 -0.015625 7.359375 0 7.296875 0 L 6.515625 0 C 6.460938 0 6.414062 -0.015625 6.375 -0.046875 C 6.34375 -0.078125 6.328125 -0.117188 6.328125 -0.171875 L 6.328125 -6.25 C 6.328125 -6.28125 6.316406 -6.296875 6.296875 -6.296875 C 6.285156 -6.304688 6.273438 -6.300781 6.265625 -6.28125 L 4.640625 -3.625 C 4.585938 -3.539062 4.515625 -3.5 4.421875 -3.5 L 4.046875 -3.5 C 3.941406 -3.5 3.867188 -3.539062 3.828125 -3.625 L 2.21875 -6.28125 C 2.195312 -6.300781 2.175781 -6.304688 2.15625 -6.296875 C 2.144531 -6.296875 2.140625 -6.28125 2.140625 -6.25 L 2.140625 -0.171875 C 2.140625 -0.117188 2.125 -0.078125 2.09375 -0.046875 C 2.0625 -0.015625 2.015625 0 1.953125 0 Z M 1.171875 0 "/></g></g></g><g fill="rgb(100%, 61.959839%, 36.859131%)" fill-opacity="1"><g transform="translate(240.902064, 242.51429)"><g><path d="M 5.46875 -4.359375 C 5.414062 -4.335938 5.410156 -4.316406 5.453125 -4.296875 C 6.285156 -3.921875 6.703125 -3.253906 6.703125 -2.296875 C 6.703125 -1.554688 6.457031 -0.988281 5.96875 -0.59375 C 5.488281 -0.195312 4.859375 0 4.078125 0 L 1.15625 0 C 1.101562 0 1.0625 -0.015625 1.03125 -0.046875 C 1 -0.078125 0.984375 -0.117188 0.984375 -0.171875 L 0.984375 -8.1875 C 0.984375 -8.238281 1 -8.28125 1.03125 -8.3125 C 1.0625 -8.34375 1.101562 -8.359375 1.15625 -8.359375 L 3.984375 -8.359375 C 4.804688 -8.359375 5.445312 -8.171875 5.90625 -7.796875 C 6.363281 -7.421875 6.59375 -6.867188 6.59375 -6.140625 C 6.59375 -5.285156 6.21875 -4.691406 5.46875 -4.359375 Z M 2.1875 -7.375 C 2.144531 -7.375 2.125 -7.351562 2.125 -7.3125 L 2.125 -4.8125 C 2.125 -4.769531 2.144531 -4.75 2.1875 -4.75 L 3.984375 -4.75 C 4.441406 -4.75 4.800781 -4.863281 5.0625 -5.09375 C 5.332031 -5.332031 5.46875 -5.648438 5.46875 -6.046875 C 5.46875 -6.453125 5.332031 -6.773438 5.0625 -7.015625 C 4.800781 -7.253906 4.441406 -7.375 3.984375 -7.375 Z M 4.078125 -1 C 4.523438 -1 4.882812 -1.125 5.15625 -1.375 C 5.425781 -1.625 5.5625 -1.96875 5.5625 -2.40625 C 5.5625 -2.832031 5.425781 -3.171875 5.15625 -3.421875 C 4.882812 -3.671875 4.515625 -3.796875 4.046875 -3.796875 L 2.1875 -3.796875 C 2.144531 -3.796875 2.125 -3.773438 2.125 -3.734375 L 2.125 -1.0625 C 2.125 -1.019531 2.144531 -1 2.1875 -1 Z M 4.078125 -1 "/></g></g></g><g fill="rgb(100%, 61.959839%, 36.859131%)" fill-opacity="1"><g transform="translate(249.83235, 242.51429)"><g><path d="M 1.15625 0 C 1.101562 0 1.0625 -0.015625 1.03125 -0.046875 C 1 -0.078125 0.984375 -0.117188 0.984375 -0.171875 L 0.984375 -8.1875 C 0.984375 -8.238281 1 -8.28125 1.03125 -8.3125 C 1.0625 -8.34375 1.101562 -8.359375 1.15625 -8.359375 L 1.953125 -8.359375 C 2.003906 -8.359375 2.046875 -8.34375 2.078125 -8.3125 C 2.109375 -8.28125 2.125 -8.238281 2.125 -8.1875 L 2.125 -1.046875 C 2.125 -1.003906 2.144531 -0.984375 2.1875 -0.984375 L 6.234375 -0.984375 C 6.296875 -0.984375 6.34375 -0.96875 6.375 -0.9375 C 6.40625 -0.90625 6.421875 -0.863281 6.421875 -0.8125 L 6.421875 -0.171875 C 6.421875 -0.117188 6.40625 -0.078125 6.375 -0.046875 C 6.34375 -0.015625 6.296875 0 6.234375 0 Z M 1.15625 0 "/></g></g></g><g fill="rgb(100%, 61.959839%, 36.859131%)" fill-opacity="1"><g transform="translate(258.117105, 242.51429)"><g><path d="M 6.53125 -7.546875 C 6.53125 -7.492188 6.515625 -7.453125 6.484375 -7.421875 C 6.453125 -7.390625 6.410156 -7.375 6.359375 -7.375 L 2.1875 -7.375 C 2.144531 -7.375 2.125 -7.351562 2.125 -7.3125 L 2.125 -4.765625 C 2.125 -4.722656 2.144531 -4.703125 2.1875 -4.703125 L 5.03125 -4.703125 C 5.082031 -4.703125 5.125 -4.6875 5.15625 -4.65625 C 5.195312 -4.625 5.21875 -4.582031 5.21875 -4.53125 L 5.21875 -3.890625 C 5.21875 -3.835938 5.195312 -3.796875 5.15625 -3.765625 C 5.125 -3.734375 5.082031 -3.71875 5.03125 -3.71875 L 2.1875 -3.71875 C 2.144531 -3.71875 2.125 -3.695312 2.125 -3.65625 L 2.125 -1.046875 C 2.125 -1.003906 2.144531 -0.984375 2.1875 -0.984375 L 6.359375 -0.984375 C 6.410156 -0.984375 6.453125 -0.96875 6.484375 -0.9375 C 6.515625 -0.90625 6.53125 -0.863281 6.53125 -0.8125 L 6.53125 -0.171875 C 6.53125 -0.117188 6.515625 -0.078125 6.484375 -0.046875 C 6.453125 -0.015625 6.410156 0 6.359375 0 L 1.15625 0 C 1.101562 0 1.0625 -0.015625 1.03125 -0.046875 C 1 -0.078125 0.984375 -0.117188 0.984375 -0.171875 L 0.984375 -8.1875 C 0.984375 -8.238281 1 -8.28125 1.03125 -8.3125 C 1.0625 -8.34375 1.101562 -8.359375 1.15625 -8.359375 L 6.359375 -8.359375 C 6.410156 -8.359375 6.453125 -8.34375 6.484375 -8.3125 C 6.515625 -8.28125 6.53125 -8.238281 6.53125 -8.1875 Z M 6.53125 -7.546875 "/></g></g></g><g clip-path="url(#id1)"><path fill="rgb(100%, 61.959839%, 36.859131%)" d="M 70.59375 222.445312 L 303.09375 222.445312 L 303.09375 226.195312 L 70.59375 226.195312 Z M 70.59375 222.445312 " fill-opacity="1" fill-rule="nonzero"/></g><g fill="rgb(100%, 61.959839%, 36.859131%)" fill-opacity="1"><g transform="translate(132.625748, 206.151154)"><g><path d="M 23.453125 -25.585938 C 25.800781 -25.585938 27.71875 -23.667969 27.71875 -21.324219 L 27.71875 -12.792969 L 6.398438 -12.792969 L 6.398438 -21.324219 C 6.398438 -23.667969 8.316406 -25.585938 10.660156 -25.585938 Z M 31.984375 -21.324219 C 31.855469 -26.054688 28.019531 -29.851562 23.453125 -29.851562 L 10.660156 -29.851562 C 5.886719 -29.851562 2.132812 -25.84375 2.132812 -21.324219 L 2.132812 0 L 6.398438 0 L 6.398438 -8.527344 L 27.71875 -8.527344 L 27.71875 0 L 31.984375 0 Z M 31.984375 -21.324219 "/></g></g></g><g fill="rgb(100%, 61.959839%, 36.859131%)" fill-opacity="1"><g transform="translate(166.741442, 206.151154)"><g><path d="M 29.851562 -25.585938 L 29.851562 -29.851562 L 0 -29.851562 L 0 -25.585938 L 12.792969 -25.585938 L 12.792969 0 L 17.058594 0 L 17.058594 -25.585938 Z M 29.851562 -25.585938 "/></g></g></g><g fill="rgb(100%, 61.959839%, 36.859131%)" fill-opacity="1"><g transform="translate(196.592678, 206.151154)"><g><path d="M 2.132812 0 L 6.398438 0 L 6.398438 -29.851562 L 2.132812 -29.851562 Z M 2.132812 0 "/></g></g></g><g fill="rgb(100%, 61.959839%, 36.859131%)" fill-opacity="1"><g transform="translate(205.121604, 206.151154)"><g><path d="M 31.984375 -29.851562 L 25.972656 -29.851562 L 13.175781 -17.058594 L 6.398438 -17.058594 L 6.398438 -29.851562 L 2.132812 -29.851562 L 2.132812 0 L 6.398438 0 L 6.398438 -12.792969 L 13.175781 -12.792969 L 25.972656 0 L 31.984375 0 L 17.058594 -14.925781 Z M 31.984375 -29.851562 "/></g></g></g><g fill="rgb(100%, 61.959839%, 36.859131%)" fill-opacity="1"><g transform="translate(237.10507, 206.151154)"><g><path d="M 23.453125 -25.585938 C 25.800781 -25.585938 27.71875 -23.667969 27.71875 -21.324219 L 27.71875 -12.792969 L 6.398438 -12.792969 L 6.398438 -21.324219 C 6.398438 -23.667969 8.316406 -25.585938 10.660156 -25.585938 Z M 31.984375 -21.324219 C 31.855469 -26.054688 28.019531 -29.851562 23.453125 -29.851562 L 10.660156 -29.851562 C 5.886719 -29.851562 2.132812 -25.84375 2.132812 -21.324219 L 2.132812 0 L 6.398438 0 L 6.398438 -8.527344 L 27.71875 -8.527344 L 27.71875 0 L 31.984375 0 Z M 31.984375 -21.324219 "/></g></g></g><g fill="rgb(100%, 61.959839%, 36.859131%)" fill-opacity="1"><g transform="translate(271.220764, 206.151154)"><g><path d="M 6.398438 -29.851562 L 2.132812 -29.851562 L 2.132812 0 L 31.984375 0 L 31.984375 -4.265625 L 6.398438 -4.265625 Z M 6.398438 -29.851562 "/></g></g></g></svg>